<svg width="1290" height="202" viewBox="0 0 1290 202" fill="none" xmlns="http://www.w3.org/2000/svg">
<path d="M930.661 1.60259C927.995 3.73593 901.595 38.9359 901.595 40.2693C901.595 40.9359 927.061 41.3359 958.261 41.3359C1019.19 41.3359 1022.13 41.6026 1025.59 48.1359C1027.59 51.7359 1026.39 63.8693 1023.59 69.2026C1022.53 71.3359 1019.99 74.1359 1017.99 75.4693C1014.53 77.7359 1010.66 78.0026 972.261 78.6693L930.395 79.3359L927.328 96.6693C925.728 106.136 924.395 115.336 924.395 116.936L924.261 120.003H964.261C1007.19 120.003 1010.93 120.536 1015.46 126.803C1019.19 132.269 1017.46 148.269 1012.53 153.869C1006.79 160.136 1005.33 160.269 957.061 160.136C931.995 160.003 905.328 160.269 897.461 160.803L883.461 161.736L881.061 177.869C879.861 186.669 878.395 195.603 877.995 197.603L877.328 201.336H943.728C1015.46 201.336 1017.06 201.203 1031.59 194.136C1040.39 189.736 1051.46 178.269 1055.73 168.803C1057.59 164.803 1059.86 157.469 1060.93 152.403C1065.19 132.403 1062.39 117.336 1052.13 106.136L1045.86 99.2026L1053.73 92.2693C1063.59 83.3359 1067.59 76.6693 1071.06 62.5359C1077.46 37.4693 1070.13 16.0026 1051.99 6.53593C1040.79 0.802594 1032.93 0.00259367 981.461 0.00259367C944.528 0.00259367 932.261 0.402594 930.661 1.60259Z" fill="black"/>
<path d="M1096.27 1.20259C1096.27 1.73593 1094.8 10.9359 1092.93 21.4693C1091.07 32.0026 1089.6 41.0693 1089.6 41.6026C1089.6 42.1359 1121.07 42.8026 1159.47 42.9359C1228 43.3359 1229.47 43.3359 1233.2 46.1359C1239.47 50.8026 1242.93 57.0693 1242.93 63.8693C1242.93 67.3359 1240.27 86.2693 1236.93 106.003C1230.13 147.469 1229.2 149.736 1216 156.403L1208.67 160.269H1165.07C1141.2 160.403 1121.33 160.136 1121.07 159.869C1120.67 159.603 1121.87 150.936 1123.73 140.669C1125.47 130.403 1129.07 108.536 1131.73 92.0026C1134.27 75.4693 1136.8 60.4026 1137.2 58.4026L1138 54.6693H1114.67H1091.33L1089.33 68.2693C1088.13 75.8693 1085.6 91.3359 1083.73 102.669C1076.67 144.803 1068.27 197.469 1068.27 199.336C1068.27 201.069 1077.73 201.336 1142.93 201.336C1215.2 201.336 1218 201.203 1226 198.536C1244.8 192.269 1259.07 181.069 1268.67 165.069C1275.07 154.403 1276.93 147.069 1281.73 116.003C1284 100.936 1286.8 82.6693 1287.87 75.3359C1291.6 51.2026 1286.8 32.4026 1273.47 18.1359C1264.4 8.40259 1255.2 3.60259 1241.33 1.46926C1231.07 -0.264073 1096.27 -0.397406 1096.27 1.20259Z" fill="black"/>
<path d="M34.2667 2.93593C34 3.86926 32.5333 11.8693 31.0667 20.6693C29.6 29.4693 25.6 52.8026 22.2667 72.6693C18.8 92.4026 12.8 127.869 8.8 151.336C4.93333 174.803 1.33333 195.603 0.8 197.736L0 201.336L23.0667 201.069L46.2667 200.669L47.3333 194.003C48 190.269 50.1333 177.736 52.1333 166.003L55.7333 144.669L117.6 144.003C177.2 143.336 179.867 143.203 186.533 140.403C203.6 133.469 216.267 122.136 222.933 107.736C228.133 96.2693 234.133 65.7359 234.133 49.3359C234.267 38.4026 233.733 35.6026 230.667 29.0693C225.733 18.5359 217.867 10.4026 207.867 5.86926L199.6 2.00259L117.2 1.60259C51.3333 1.33593 34.8 1.60259 34.2667 2.93593ZM180.8 45.7359C186.933 49.7359 188.8 56.2693 187.067 66.9359C183.2 90.4026 180.667 95.4693 170.267 100.136C165.467 102.403 160.533 102.669 114.667 102.669C65.6 102.669 64.2667 102.669 64.2667 100.003C64.2667 97.2026 73.2 47.0693 74.2667 44.2693C74.8 42.9359 85.0667 42.6693 126 42.9359C172.8 43.3359 177.333 43.6026 180.8 45.7359Z" fill="black"/>
<path d="M263.598 4.26926C263.198 6.00259 260.265 23.4693 256.931 43.3359C253.731 63.0693 250.131 84.6693 249.065 91.3359C247.865 97.8693 243.598 123.469 239.598 148.003C235.465 172.536 231.731 194.669 231.331 196.936L230.531 201.336H253.465C275.998 201.336 276.265 201.336 276.798 198.269C277.198 196.669 279.331 184.269 281.598 170.669C283.865 157.069 285.998 144.403 286.398 142.269L287.198 138.669H310.265H333.465L354.531 170.003L375.598 201.203L402.665 201.336C423.998 201.336 429.598 200.936 428.798 199.603C425.865 194.936 403.865 163.069 395.865 152.136L386.798 139.469L395.865 137.336C415.198 132.803 431.865 119.603 440.131 102.269C445.731 90.6693 451.465 59.2026 450.665 44.6693C449.465 23.8693 439.198 10.1359 419.731 3.60259C413.865 1.60259 404.531 1.33593 338.665 1.33593H264.265L263.598 4.26926ZM396.265 45.0693C403.998 48.9359 405.065 52.8026 402.265 68.5359C399.465 84.4026 397.865 87.8693 391.331 92.9359L386.531 96.6693L340.665 97.0693C308.131 97.3359 294.931 97.0693 294.931 96.0026C294.931 94.1359 302.931 46.5359 303.598 44.2693C303.998 43.0693 314.131 42.6693 347.865 42.6693C386.798 42.6693 392.131 42.9359 396.265 45.0693Z" fill="black"/>
<path d="M476.931 4.26926C475.864 9.20259 468.797 49.6026 461.597 92.0026C450.264 158.803 444.264 193.869 443.464 197.603L442.664 201.336H465.464C487.997 201.336 488.264 201.336 488.931 198.269C489.331 196.669 490.797 188.403 492.264 180.003C495.864 158.269 501.864 124.269 508.131 89.3359C511.197 72.8026 514.531 53.8693 515.731 47.3359C516.797 40.6693 518.664 30.8026 519.731 25.3359C520.664 19.8693 521.864 12.1359 522.397 8.26926L523.331 1.33593H500.397C477.864 1.33593 477.597 1.33593 476.931 4.26926Z" fill="black"/>
<path d="M539.333 19.7359C537.6 29.7359 534.533 48.1359 532.4 60.6693C530.133 73.0693 524.133 108.536 518.933 139.336C513.733 170.136 509.2 196.669 508.667 198.403L508 201.336L531.067 201.069L554.267 200.669L556.533 186.669C557.733 178.936 561.467 156.803 564.8 137.336C568.267 117.869 572 95.8693 573.333 88.2693C574.533 80.8026 575.867 74.6693 576.267 74.6693C576.667 74.6693 577.6 76.0026 578.267 77.7359C579.067 79.3359 590.8 101.069 604.267 126.003C617.733 150.936 632.267 178.136 636.667 186.269L644.667 201.336H666.267H687.867L689.467 193.603C690.267 189.469 693.6 169.736 696.933 150.003C700.133 130.136 706.8 90.9359 711.6 62.6693C716.533 34.4026 720.8 9.06926 721.2 6.26926L722 1.33593H699.2C676.533 1.33593 676.267 1.33593 675.6 4.26926C674.667 8.53593 666.133 60.1359 661.467 89.3359C659.333 102.936 656.933 116.936 656.133 120.403L654.667 126.936L636.4 92.4026C626.4 73.4693 611.333 45.2026 602.933 29.7359L587.6 1.33593H564.933H542.267L539.333 19.7359Z" fill="black"/>
<path d="M726.802 22.0048L723.469 42.6715H754.669C780.402 42.6715 785.735 42.9381 785.202 44.5381C784.802 45.4715 783.469 52.5381 782.269 60.1381C779.202 78.9381 766.402 156.138 762.269 180.005C760.402 190.671 758.935 199.738 758.935 200.405C758.935 200.938 769.202 201.205 781.869 201.071L804.802 200.671L807.202 185.338C808.535 176.938 811.335 159.738 813.602 147.338C815.735 134.805 818.135 121.071 818.802 116.671C819.469 112.271 821.335 101.471 822.935 92.6715C824.535 83.8715 827.069 69.2048 828.669 60.0048L831.602 43.3381L861.602 42.6715L891.469 42.0048L892.535 36.6715C893.202 33.7381 894.802 24.5381 896.135 16.2715L898.535 1.33814H814.269H730.135L726.802 22.0048Z" fill="black"/>
</svg>
